<?xml version="1.0" standalone="no"?>
<!DOCTYPE svg PUBLIC "-//W3C//DTD SVG 20010904//EN"
 "http://www.w3.org/TR/2001/REC-SVG-20010904/DTD/svg10.dtd">
<svg version="1.0" xmlns="http://www.w3.org/2000/svg"
 width="573.000000pt" height="530.000000pt" viewBox="0 0 573.000000 530.000000"
 preserveAspectRatio="xMidYMid meet">

<g transform="translate(0.000000,530.000000) scale(0.100000,-0.100000)"
fill="#000000" stroke="none">
<path d="M0 2650 l0 -2650 2865 0 2865 0 0 2650 0 2650 -2865 0 -2865 0 0
-2650z m717 1250 c111 -39 164 -107 171 -216 5 -82 -11 -126 -62 -171 l-43
-37 40 -30 c58 -44 82 -97 81 -173 -3 -107 -53 -181 -154 -227 -36 -16 -72
-21 -177 -24 l-133 -4 0 86 0 86 96 0 c108 0 154 15 173 56 29 64 -2 117 -80
133 -27 6 -120 11 -204 11 l-155 0 0 265 0 265 195 0 c170 0 203 -3 252 -20z
m750 -405 c90 -231 166 -433 170 -448 l6 -28 -93 3 -93 3 -86 242 -86 242 -41
-117 c-23 -64 -61 -173 -85 -242 l-44 -125 -93 -3 c-74 -2 -92 0 -92 11 0 8
72 201 161 428 89 228 165 424 170 437 22 57 40 21 206 -403z m588 137 l200
-287 3 288 2 287 90 0 90 0 0 -450 0 -451 -92 3 -93 3 -200 285 -200 285 -3
-182 -2 -183 -90 0 -90 0 0 345 0 345 93 -1 92 0 200 -287z m800 0 l200 -287
3 288 2 287 90 0 90 0 0 -450 0 -451 -92 3 -93 3 -200 285 -200 285 -3 -182
-2 -183 -90 0 -90 0 0 345 0 345 93 -1 92 0 200 -287z m855 203 l0 -85 -130 0
-130 0 0 -95 0 -95 183 -2 182 -3 3 -82 3 -83 -186 0 -185 0 0 -100 0 -100
130 0 130 0 0 -85 0 -85 -220 0 -220 0 0 450 0 450 220 0 220 0 0 -85z m542
56 c120 -39 216 -126 254 -231 22 -61 30 -246 14 -319 -35 -158 -152 -266
-333 -306 -52 -11 -111 -15 -212 -13 l-140 3 0 180 0 180 93 3 92 3 0 -101 0
-100 43 0 c165 0 272 95 284 253 15 179 -101 307 -279 307 l-48 0 0 -100 0
-101 -92 3 -93 3 -3 170 c-1 93 0 176 3 183 9 24 331 11 417 -17z m987 -2 c87
-44 139 -121 141 -207 l0 -33 -87 3 -87 3 -8 32 c-5 18 -18 39 -30 48 -29 20
-102 19 -133 -1 -32 -21 -50 -79 -36 -116 15 -39 47 -56 131 -68 138 -20 225
-94 250 -215 34 -162 -89 -315 -252 -315 l-39 0 3 81 3 81 40 14 c62 21 88 70
63 120 -21 43 -58 64 -131 74 -189 27 -291 167 -244 331 38 129 136 198 283
199 60 0 81 -5 133 -31z m-493 -111 c-3 -29 -9 -97 -12 -150 l-7 -98 -37 0
-37 0 -7 108 c-4 59 -9 126 -12 150 l-6 42 62 0 62 0 -6 -52z m-3466 -1367 l0
-369 55 -4 55 -3 0 373 0 372 93 0 94 0 159 -326 160 -326 151 323 151 324 91
3 91 3 0 -346 0 -345 -90 0 -90 0 -1 133 0 132 -112 -222 -112 -223 -76 0
c-49 0 -80 4 -87 13 -5 6 -59 107 -118 222 l-109 210 -3 -237 -2 -237 -296 -1
-295 0 3 78 3 77 53 3 52 3 0 370 0 369 90 0 90 0 0 -369z m1611 342 c51 -23
102 -70 126 -116 22 -44 29 -156 12 -214 -17 -63 -87 -133 -154 -157 -32 -12
-92 -20 -162 -23 l-113 -6 0 -178 0 -179 -90 0 -90 0 0 264 0 264 184 3 c169
4 187 6 213 25 55 42 55 106 0 148 -26 19 -44 21 -213 24 l-184 3 0 85 0 85
213 -3 c190 -3 217 -6 258 -25z m459 -342 l0 -369 55 -4 55 -3 0 186 0 187
183 4 c119 2 190 8 204 16 52 29 61 108 19 151 -26 26 -27 26 -216 29 l-190 3
0 85 0 84 200 0 c178 0 205 -2 256 -21 113 -43 173 -143 161 -271 -9 -99 -47
-157 -142 -213 -16 -10 -10 -28 69 -197 47 -103 86 -189 86 -192 0 -4 -44 -6
-98 -6 l-98 0 -81 178 -82 177 -45 3 -46 3 0 -180 0 -180 -290 -1 -291 0 3 77
3 78 53 3 52 3 0 370 0 369 90 0 90 0 0 -369z m1200 284 l0 -85 -130 0 -130 0
0 -95 0 -95 183 -2 182 -3 3 -82 3 -83 -186 0 -185 0 0 -100 0 -100 130 0 130
0 0 -85 0 -85 -220 0 -220 0 0 450 0 450 220 0 220 0 0 -85z m-2270 -1080 c0
-24 -2 -25 -65 -25 l-65 0 0 -165 0 -165 -30 0 -30 0 0 165 0 165 -60 0 c-57
0 -60 1 -60 25 l0 25 155 0 155 0 0 -25z m380 0 c0 -25 -1 -25 -90 -25 l-90 0
0 -55 0 -55 85 0 c84 0 85 0 85 -25 0 -25 -1 -25 -85 -25 l-85 0 0 -60 0 -60
95 0 c95 0 95 0 95 -25 l0 -25 -125 0 -125 0 0 190 0 190 120 0 120 0 0 -25z
m412 -165 l76 -190 -32 0 c-29 0 -34 4 -46 40 l-13 40 -89 0 -90 0 -15 -40
c-14 -34 -21 -40 -45 -40 -15 0 -28 4 -28 9 0 8 137 348 147 364 2 4 16 7 31
7 26 0 31 -10 104 -190z m334 85 c38 -57 71 -105 74 -105 3 0 35 47 73 105 61
95 70 105 97 105 l30 0 0 -190 0 -190 -30 0 -30 0 0 138 0 137 -58 -87 c-77
-118 -88 -118 -165 0 l-57 87 0 -137 0 -138 -30 0 -30 0 0 190 0 190 29 0 c25
0 36 -12 97 -105z"/>
<path d="M450 3656 l0 -96 73 0 c92 0 141 14 167 47 28 36 25 67 -9 105 -29
33 -31 33 -130 36 l-101 4 0 -96z"/>
<path d="M2935 1483 c-17 -42 -31 -80 -33 -85 -2 -4 26 -8 62 -8 36 0 66 2 66
5 0 5 -60 159 -64 162 -1 1 -15 -32 -31 -74z"/>
</g>
</svg>
