<?xml version="1.0" standalone="no"?>
<!DOCTYPE svg PUBLIC "-//W3C//DTD SVG 20010904//EN"
 "http://www.w3.org/TR/2001/REC-SVG-20010904/DTD/svg10.dtd">
<svg version="1.0" xmlns="http://www.w3.org/2000/svg"
 width="2400.000000pt" height="1867.000000pt" viewBox="0 0 2400.000000 1867.000000"
 preserveAspectRatio="xMidYMid meet">

<g transform="translate(0.000000,1867.000000) scale(0.100000,-0.100000)"
fill="#000000" stroke="none">
<path d="M12525 18664 c-339 -12 -629 -27 -805 -40 -1101 -79 -2067 -258
-2956 -545 -481 -155 -1013 -378 -1319 -551 -44 -25 -273 -150 -510 -278 -468
-253 -679 -373 -907 -516 -783 -490 -1261 -1006 -1511 -1630 -65 -161 -82
-243 -80 -399 1 -216 57 -426 174 -655 264 -519 714 -856 1107 -827 145 10
159 18 662 357 504 339 760 518 760 531 0 4 -109 90 -242 190 -398 300 -546
433 -670 600 -76 102 -111 168 -150 279 -31 90 -32 103 -32 235 0 164 15 232
93 403 27 59 52 118 56 132 4 14 25 62 46 108 217 471 644 799 1315 1011 260
81 946 241 1374 320 2123 390 3831 342 5281 -148 262 -88 376 -145 627 -313
407 -272 785 -650 1060 -1059 436 -650 657 -1403 612 -2088 -20 -309 -112
-612 -298 -976 -268 -525 -750 -1068 -1366 -1537 -95 -73 -129 -93 -175 -104
-31 -8 -185 -43 -342 -79 -1105 -252 -2096 -596 -2996 -1041 -150 -74 -280
-134 -289 -134 -46 0 -159 -36 -249 -80 -359 -175 -683 -613 -551 -745 61 -61
169 -58 396 10 63 19 216 59 340 89 474 116 790 229 1809 645 682 279 953 379
1109 412 1246 256 2553 336 3657 223 1313 -134 2445 -517 3390 -1147 394 -262
711 -537 897 -777 239 -309 421 -691 502 -1052 41 -183 57 -337 57 -533 0
-385 -70 -670 -252 -1035 -224 -446 -487 -809 -844 -1165 -453 -451 -987 -801
-1580 -1034 -229 -91 -983 -330 -1385 -441 -1050 -288 -1935 -413 -2825 -397
-547 10 -959 62 -1445 184 -318 79 -517 149 -739 261 -1058 533 -1863 1287
-2297 2154 l-77 153 12 135 c22 258 78 458 191 685 183 366 444 607 755 697
72 21 99 23 270 22 757 -4 1495 -277 2114 -781 250 -204 541 -528 698 -778 65
-103 106 -302 106 -510 0 -370 -135 -732 -414 -1105 -86 -115 -299 -342 -409
-435 -25 -21 -32 -30 -16 -21 384 239 1132 666 1361 778 113 55 155 68 155 50
0 -16 -88 -80 -215 -157 -283 -171 -625 -411 -837 -587 -103 -85 -233 -216
-224 -225 5 -5 449 225 636 330 873 488 1308 936 1511 1558 74 228 92 325 93
509 1 235 -38 406 -144 626 -112 235 -260 436 -484 659 -221 220 -438 392
-751 597 -254 167 -394 242 -620 331 -363 143 -707 209 -1105 210 -224 1 -372
-11 -550 -44 -392 -74 -687 -188 -1045 -404 -66 -40 -302 -179 -525 -310 -516
-303 -791 -478 -993 -633 -32 -24 -62 -40 -66 -36 -5 5 -16 50 -25 99 -92 479
-452 1911 -616 2450 -275 900 -428 1699 -480 2510 -14 211 -14 769 0 970 37
547 113 968 276 1543 138 485 308 855 579 1262 154 230 392 519 564 685 l42
40 162 0 c157 0 164 -1 222 -28 106 -50 164 -122 188 -236 l12 -58 585 330
c471 266 604 337 683 363 117 39 171 69 219 122 45 50 62 101 55 167 -20 193
-270 388 -529 413 -189 19 -497 -49 -803 -176 -234 -97 -388 -183 -1010 -559
-154 -93 -350 -207 -435 -253 -396 -213 -649 -399 -936 -684 -461 -460 -810
-1024 -1066 -1724 -157 -431 -277 -966 -327 -1457 -6 -55 -19 -176 -30 -270
-79 -687 -36 -1450 130 -2305 101 -517 199 -910 488 -1960 216 -785 250 -919
345 -1368 292 -1369 378 -1979 379 -2697 1 -824 -129 -1433 -448 -2090 -119
-246 -261 -453 -456 -664 l-76 -82 -115 -24 c-220 -44 -391 -59 -693 -59 -293
0 -429 9 -735 50 -428 57 -1050 186 -1545 319 -823 222 -1339 403 -1810 635
-429 212 -758 442 -1056 739 -437 436 -600 772 -601 1236 -1 367 125 753 363
1108 120 181 200 279 359 438 158 158 276 254 459 374 73 48 130 89 128 92 -9
8 -430 -243 -846 -504 -74 -47 -47 -22 144 134 225 183 340 272 453 349 198
137 328 255 305 278 -26 26 -166 -29 -382 -152 -86 -49 -248 -135 -360 -191
-1166 -583 -1820 -1209 -2085 -1996 -47 -139 -102 -361 -117 -474 -17 -124 -6
-400 20 -522 129 -601 604 -1190 1296 -1609 137 -82 628 -327 845 -420 1112
-478 2245 -763 3595 -906 297 -32 598 -38 750 -15 487 71 883 230 1675 671
190 106 388 214 441 241 365 183 721 452 1011 765 375 404 654 872 833 1393
25 74 48 137 50 139 3 3 65 -53 138 -125 397 -388 924 -711 1492 -915 963
-346 2061 -432 3380 -262 2117 271 4308 1199 6490 2748 1141 811 1808 1723
1950 2664 20 136 21 595 0 737 -119 839 -630 1564 -1540 2187 -951 651 -2239
1078 -3640 1207 -609 57 -1331 60 -1970 10 -314 -24 -848 -85 -1083 -123 -46
-7 -80 -10 -75 -6 4 5 105 73 223 152 765 512 1328 1043 1707 1608 294 440
458 876 509 1358 57 532 -96 1232 -407 1854 -327 656 -789 1186 -1369 1572
-306 204 -548 320 -935 448 -585 193 -1064 272 -1865 308 -237 10 -873 19
-1015 14z"/>
</g>
</svg>
